<?xml version="1.0" encoding="utf-8"?>
<!-- Generator: Adobe Illustrator 23.0.6, SVG Export Plug-In . SVG Version: 6.00 Build 0)  -->
<svg version="1.1" id="Layer_1" xmlns="http://www.w3.org/2000/svg" xmlns:xlink="http://www.w3.org/1999/xlink" x="0px" y="0px"
	 viewBox="0 0 64 64" style="enable-background:new 0 0 64 64;" xml:space="preserve">
<style type="text/css">
	.st0{fill:#EC4C98;}
	.st1{fill:none;}
	.st2{fill:#CE307B;}
	.st3{fill:#A88967;}
	.st4{fill:#E88793;}
	.st5{fill:#F7C0CD;}
	.st6{fill:#FFD067;}
	.st7{fill:#EC635F;}
	.st8{fill:#CC4948;}
	.st9{fill:#EA3B4F;}
	.st10{fill:#FDE373;}
	.st11{fill:#9ECAE0;}
	.st12{fill:#010101;}
	.st13{fill:#F8B2B3;}
	.st14{fill:#CCCCCC;}
	.st15{fill:#683D17;}
	.st16{fill:#971D21;}
	.st17{fill:#D32C39;}
	.st18{fill:#EB9E2D;}
	.st19{fill:#F9BF73;}
	.st20{fill:#D46360;}
	.st21{fill:#EAEEF1;}
	.st22{fill:#ED6F6E;}
	.st23{fill:#FAC2C3;}
	.st24{fill:#FDF5A3;}
	.st25{fill:#F49DC3;}
	.st26{fill:#D85DA0;}
	.st27{fill:#F7A4A6;}
	.st28{fill:#FFE09C;}
	.st29{fill:#D25252;}
	.st30{fill:none;stroke:#010101;strokeWidth:2;stroke-miterlimit:10;}
	.st31{fill:#DFE568;}
	.st32{fill:#D0202B;}
	.st33{fill:#66A9B2;}
	.st34{fill:#8BCEDB;}
	.st35{fill:#ACDFE6;}
	.st36{fill:#F58D95;}
	.st37{fill:#F26C76;}
	.st38{fill:#F7A6AE;}
	.st39{fill:#FDE588;}
	.st40{fill:#853223;}
	.st41{fill:#C6877E;}
	.st42{fill:#C32026;}
	.st43{fill:#969595;}
	.st44{fill:#F9B4AB;}
	.st45{fill:#FBCFC8;}
	.st46{fill:#DC326F;}
	.st47{fill:#F7FAFC;}
	.st48{fill:#F6EFE8;}
	.st49{fill:#7DC8C7;}
	.st50{fill:#E27F86;}
	.st51{fill:#FFFFFF;}
	.st52{fill:#BEDDF4;}
	.st53{fill:#FBB03B;}
	.st54{fill:#F47D4E;}
	.st55{fill:#F176A8;}
	.st56{fill:#ED227C;}
	.st57{fill:#ED99C1;}
	.st58{fill:#FDF053;}
	.st59{fill:#F9B9A2;}
	.st60{fill:#F09B78;}
	.st61{fill:none;stroke:#000000;strokeWidth:2;stroke-miterlimit:10;}
	.st62{fill:none;stroke:#010101;strokeWidth:2.5936;stroke-miterlimit:10;}
	.st63{fill:none;stroke:#010101;strokeWidth:2.6898;stroke-miterlimit:10;}
	.st64{fill:none;stroke:#010101;strokeWidth:1.8138;stroke-miterlimit:10;}
	.st65{fill:none;stroke:#010101;strokeWidth:1.9508;stroke-miterlimit:10;}
	.st66{fill:none;stroke:#010101;strokeWidth:1.9031;stroke-miterlimit:10;}
	.st67{fill:none;stroke:#010101;strokeWidth:1.5453;stroke-miterlimit:10;}
	.st68{fill:none;stroke:#010101;strokeWidth:1.7277;stroke-miterlimit:10;}
	.st69{opacity:0.3;}
	.st70{opacity:0.3;fill:#FFFFFF;}
</style>
<g id="Vector">
	<g id="sneakers">
		<path className="st9" d="M30.75,18.99c-1.83,2.28-3.48,3.9-4.96,5c-3.14,2.32-5.55,2.31-7.33,1.35c-7.86,6.09-11.23-0.83-11.23-0.83
			C4.58,29.59,4,36.34,4,36.34l16.68,2.07l2.07-2.41l12.41-14.43L30.75,18.99z M30.85,23.95c-0.35,0-0.62-0.28-0.62-0.62
			c0-0.35,0.28-0.62,0.62-0.62c0.34,0,0.62,0.28,0.62,0.62C31.47,23.67,31.19,23.95,30.85,23.95z"/>
		<path className="st10" d="M18.45,25.34c-7.86,6.09-11.23-0.83-11.23-0.83c1.51-2.92,3.69-5.29,6.83-5.52
			C14.05,18.99,15.29,23.64,18.45,25.34z"/>
		<path className="st1" d="M30.22,23.33c0-0.35,0.28-0.62,0.62-0.62c0.34,0,0.62,0.28,0.62,0.62c0,0.34-0.28,0.62-0.62,0.62
			C30.5,23.95,30.22,23.67,30.22,23.33z"/>
		<path className="st10" d="M60.63,32.67c-0.77,4.03-12.52,1.52-12.52,1.52c-0.5,0.08-1.06,0.14-1.71,0.19c0,0-3.4,0.18-5.75,1.77
			c-1.43,0.96-2.47,2.45-2.11,4.73c-1.33-0.18-2.68-0.43-4.01-0.76l-13.84-1.71l2.07-2.41l12.41-14.43l2.24,1.31l-2.31,2.04
			c-0.3,0.26-0.32,0.71-0.06,1.01c0.26,0.3,0.71,0.32,1.01,0.06l2.66-2.35l1.53,0.89l-2.18,1.93c-0.3,0.26-0.32,0.71-0.06,1.01
			c0.26,0.3,0.71,0.32,1.01,0.06l2.54-2.24l1.67,0.98l-2.3,2.03c-0.3,0.26-0.32,0.71-0.06,1.01c0.26,0.3,0.71,0.32,1.01,0.06
			l2.66-2.35l6.39,3.72C50.91,30.73,57.51,30.28,60.63,32.67z"/>
		<path className="st9" d="M61.14,39.34c0,0-11.01,3.15-22.6,1.54c-0.36-2.28,0.68-3.77,2.11-4.73c2.35-1.58,5.75-1.77,5.75-1.77
			c0.64-0.05,1.21-0.11,1.71-0.19c0,0,11.75,2.51,12.52-1.52C62.27,33.93,62.95,35.99,61.14,39.34z"/>
		<path className="st11" d="M61.14,39.34c-0.85,4.89-6.39,6.39-6.39,6.39c-8.37,0.9-25.34,0.5-42.92,0C1.4,44.56,1.79,41.33,1.79,41.33
			l2.22-5l16.68,2.07l13.84,1.71c1.33,0.32,2.68,0.57,4.01,0.76C50.12,42.48,61.14,39.34,61.14,39.34z"/>
		<path className="st1" d="M38.54,40.88c-1.33-0.18-2.68-0.43-4.01-0.76l-13.84-1.71l2.07-2.41c5.73-0.04,12.05-0.02,17.89,0.15
			C39.22,37.11,38.18,38.6,38.54,40.88z"/>
		<path className="st10" d="M30.75,18.99c-1.83,2.28-3.48,3.9-4.96,5C21.08,13.98,30.75,18.99,30.75,18.99z"/>
		<path className="st1" d="M50.91,30.73c0,0,2.44,2.61-2.8,3.46"/>
		<path className="st12" d="M31.47,23.33c0,0.34-0.28,0.62-0.62,0.62c-0.35,0-0.62-0.28-0.62-0.62c0-0.35,0.28-0.62,0.62-0.62
			C31.19,22.71,31.47,22.98,31.47,23.33z"/>
		<path className="st12" d="M38.96,23.4l-0.25,0.22l-2.66,2.35c-0.3,0.26-0.75,0.23-1.01-0.06c-0.26-0.3-0.23-0.75,0.06-1.01l2.31-2.04
			l0.61-0.54c0.14-0.12,0.3-0.18,0.47-0.18c0.2,0,0.39,0.08,0.54,0.24C39.28,22.69,39.26,23.14,38.96,23.4z"/>
		<path className="st12" d="M41.92,24.94l-0.37,0.33L39,27.52c-0.3,0.26-0.75,0.23-1.01-0.06c-0.26-0.3-0.23-0.75,0.06-1.01l2.18-1.93
			l0.73-0.64c0.14-0.12,0.3-0.18,0.47-0.18c0.2,0,0.39,0.08,0.54,0.24C42.24,24.23,42.21,24.68,41.92,24.94z"/>
		<path className="st12" d="M44.78,26.78l-0.26,0.23l-2.66,2.35c-0.3,0.26-0.75,0.23-1.01-0.06c-0.26-0.3-0.23-0.75,0.06-1.01l2.3-2.03
			l0.61-0.54c0.14-0.12,0.3-0.18,0.47-0.18c0.2,0,0.39,0.08,0.54,0.24C45.1,26.07,45.08,26.52,44.78,26.78z"/>
	</g>
</g>
<g id="Line">
	<g id="sneakers_1_">
		<path className="st61" d="M30.75,18.99c-1.83,2.28-3.48,3.9-4.96,5c-3.14,2.32-5.55,2.31-7.33,1.35c-7.86,6.09-11.23-0.83-11.23-0.83
			C4.58,29.59,4,36.34,4,36.34l16.68,2.07l2.07-2.41l12.41-14.43L30.75,18.99z M30.85,23.95c-0.35,0-0.62-0.28-0.62-0.62
			c0-0.35,0.28-0.62,0.62-0.62c0.34,0,0.62,0.28,0.62,0.62C31.47,23.67,31.19,23.95,30.85,23.95z"/>
		<path className="st61" d="M18.45,25.34c-7.86,6.09-11.23-0.83-11.23-0.83c1.51-2.92,3.69-5.29,6.83-5.52
			C14.05,18.99,15.29,23.64,18.45,25.34z"/>
		<path className="st61" d="M30.22,23.33c0-0.35,0.28-0.62,0.62-0.62c0.34,0,0.62,0.28,0.62,0.62c0,0.34-0.28,0.62-0.62,0.62
			C30.5,23.95,30.22,23.67,30.22,23.33z"/>
		<path className="st61" d="M60.63,32.67c-0.77,4.03-12.52,1.52-12.52,1.52c-0.5,0.08-1.06,0.14-1.71,0.19c0,0-3.4,0.18-5.75,1.77
			c-1.43,0.96-2.47,2.45-2.11,4.73c-1.33-0.18-2.68-0.43-4.01-0.76l-13.84-1.71l2.07-2.41l12.41-14.43l2.24,1.31l-2.31,2.04
			c-0.3,0.26-0.32,0.71-0.06,1.01c0.26,0.3,0.71,0.32,1.01,0.06l2.66-2.35l1.53,0.89l-2.18,1.93c-0.3,0.26-0.32,0.71-0.06,1.01
			c0.26,0.3,0.71,0.32,1.01,0.06l2.54-2.24l1.67,0.98l-2.3,2.03c-0.3,0.26-0.32,0.71-0.06,1.01c0.26,0.3,0.71,0.32,1.01,0.06
			l2.66-2.35l6.39,3.72C50.91,30.73,57.51,30.28,60.63,32.67z"/>
		<path className="st61" d="M61.14,39.34c0,0-11.01,3.15-22.6,1.54c-0.36-2.28,0.68-3.77,2.11-4.73c2.35-1.58,5.75-1.77,5.75-1.77
			c0.64-0.05,1.21-0.11,1.71-0.19c1.41,0.41,3.47,0.84,5.97,0.75c3.2-0.11,5.7-1,7.19-1.68c0.31,0.36,0.52,0.71,0.65,1.02
			C62.91,36.53,61.38,38.96,61.14,39.34z"/>
		<path className="st61" d="M61.14,39.34c-0.85,4.89-6.39,6.39-6.39,6.39c-8.37,0.9-25.34,0.5-42.92,0C1.4,44.56,1.79,41.33,1.79,41.33
			l2.22-5l16.68,2.07l13.84,1.71c1.33,0.32,2.68,0.57,4.01,0.76C50.12,42.48,61.14,39.34,61.14,39.34z"/>
		<path className="st61" d="M38.54,40.88c-1.33-0.18-2.68-0.43-4.01-0.76l-13.84-1.71l2.07-2.41c5.73-0.04,12.05-0.02,17.89,0.15
			C39.22,37.11,38.18,38.6,38.54,40.88z"/>
		<path className="st61" d="M30.75,18.99c-1.83,2.28-3.48,3.9-4.96,5C21.08,13.98,30.75,18.99,30.75,18.99z"/>
		<path className="st61" d="M50.91,30.73c0,0,2.44,2.61-2.8,3.46"/>
		<path className="st61" d="M31.47,23.33c0,0.34-0.28,0.62-0.62,0.62c-0.35,0-0.62-0.28-0.62-0.62c0-0.35,0.28-0.62,0.62-0.62
			C31.19,22.71,31.47,22.98,31.47,23.33z"/>
		<path className="st61" d="M38.96,23.4l-0.25,0.22l-2.66,2.35c-0.3,0.26-0.75,0.23-1.01-0.06c-0.26-0.3-0.23-0.75,0.06-1.01l2.31-2.04
			l0.61-0.54c0.14-0.12,0.3-0.18,0.47-0.18c0.2,0,0.39,0.08,0.54,0.24C39.28,22.69,39.26,23.14,38.96,23.4z"/>
		<path className="st61" d="M41.92,24.94l-0.37,0.33L39,27.52c-0.3,0.26-0.75,0.23-1.01-0.06c-0.26-0.3-0.23-0.75,0.06-1.01l2.18-1.93
			l0.73-0.64c0.14-0.12,0.3-0.18,0.47-0.18c0.2,0,0.39,0.08,0.54,0.24C42.24,24.23,42.21,24.68,41.92,24.94z"/>
		<path className="st61" d="M44.78,26.78l-0.26,0.23l-2.66,2.35c-0.3,0.26-0.75,0.23-1.01-0.06c-0.26-0.3-0.23-0.75,0.06-1.01l2.3-2.03
			l0.61-0.54c0.14-0.12,0.3-0.18,0.47-0.18c0.2,0,0.39,0.08,0.54,0.24C45.1,26.07,45.08,26.52,44.78,26.78z"/>
	</g>
</g>
<g id="shadow">
	<path className="st69" d="M26.72,21.56l2.24,1.31l0.61-0.54c0.14-0.12,0.3-0.18,0.47-0.18c0.2,0,0.39,0.08,0.54,0.24
		c0.26,0.3,0.23,0.75-0.06,1.01l-0.25,0.22l1.53,0.89l0.73-0.64c0.14-0.12,0.3-0.18,0.47-0.18c0.2,0,0.39,0.08,0.54,0.24
		c0.26,0.3,0.23,0.75-0.06,1.01l-0.37,0.33l1.67,0.98l0.61-0.54c0.14-0.12,0.3-0.18,0.47-0.18c0.2,0,0.39,0.08,0.54,0.24
		c0.26,0.3,0.23,0.75-0.06,1.01l-0.26,0.23l6.39,3.72c0,0,6.6-0.45,9.72,1.94c1.65,1.26,2.32,3.32,0.51,6.67
		c-0.85,4.89-6.39,6.39-6.39,6.39c-2.81,0.3-6.61,0.46-11.07,0.51c8.14,0.08,15.05-0.03,19.51-0.51c0,0,5.55-1.5,6.39-6.39
		c1.81-3.34,1.14-5.4-0.51-6.67c-3.11-2.39-9.72-1.94-9.72-1.94l-6.39-3.72l0.26-0.23c0.3-0.26,0.32-0.71,0.06-1.01
		c-0.14-0.16-0.34-0.24-0.54-0.24c-0.17,0-0.34,0.06-0.47,0.18l-0.61,0.54l-1.67-0.98l0.37-0.33c0.3-0.26,0.32-0.71,0.06-1.01
		c-0.14-0.16-0.34-0.24-0.54-0.24c-0.17,0-0.34,0.06-0.47,0.18l-0.73,0.64l-1.53-0.89l0.25-0.22c0.3-0.26,0.32-0.71,0.06-1.01
		c-0.14-0.16-0.34-0.24-0.54-0.24c-0.17,0-0.34,0.06-0.47,0.18l-0.61,0.54l-2.24-1.31l-4.42-2.57c0,0-6.85-3.55-6.21,1.3
		L26.72,21.56z"/>
</g>
<g id="Highligth">
	<g id="dress_3_">
	</g>
	<g id="heels_3_">
	</g>
	<g id="sneakers_3_">
	</g>
	<g id="brush_3_">
	</g>
	<g id="lipstick_3_">
	</g>
	<g id="powder_3_">
	</g>
	<g id="eye_shadow_3_">
	</g>
	<g id="hat_3_">
	</g>
	<g id="boots_3_">
	</g>
	<g id="earring_1_">
	</g>
	<g id="hair_straightener_3_">
	</g>
	<g id="hair_dyer">
	</g>
	<g id="cream_3_">
	</g>
	<g id="long_shirt_3_">
	</g>
	<g id="hot_pents_1_">
	</g>
	<g id="dress_party_3_">
	</g>
	<g id="kutex_3_">
	</g>
	<g id="mirror_3_">
	</g>
	<g id="parfume_3_">
	</g>
	<path className="st70" d="M23.47,25.35c1.79,0.95,4.18,0.95,7.31-1.36c-1.39-2.95-1.52-4.59-1.02-5.44c-2.33-0.96-7.73-2.55-3.98,5.44
		C24.96,24.59,24.2,25.03,23.47,25.35z"/>
	<path className="st70" d="M42.22,46.26c-7.6-0.04-16.41-0.27-25.39-0.53C6.4,44.55,6.79,41.33,6.79,41.33l2.22-5
		c0,0,0.58-6.75,3.21-11.83c0.7-1.36,1.56-2.58,2.58-3.54c-0.51-1.12-0.75-1.98-0.75-1.98c-3.14,0.24-5.32,2.61-6.83,5.52
		C4.58,29.59,4,36.34,4,36.34l-2.22,5c0,0-0.39,3.22,10.04,4.39C22.86,46.04,33.64,46.32,42.22,46.26z"/>
</g>
</svg>
